<svg width="64" height="64" viewBox="0 0 64 64" xmlns="http://www.w3.org/2000/svg">
  <!-- Фон прозрачный -->
  
  <!-- Тень -->
  <ellipse cx="32" cy="60" rx="10" ry="3" fill="#000000" opacity="0.3"/>
  
  <!-- Основание бочки -->
  <ellipse cx="32" cy="48" rx="12" ry="4" fill="#8B4513"/>
  
  <!-- Тело бочки -->
  <ellipse cx="32" cy="40" rx="12" ry="6" fill="#DEB887"/>
  <ellipse cx="32" cy="32" rx="12" ry="6" fill="#DEB887"/>
  <ellipse cx="32" cy="24" rx="12" ry="6" fill="#DEB887"/>
  
  <!-- Обручи -->
  <ellipse cx="32" cy="48" rx="12" ry="4" fill="none" stroke="#654321" stroke-width="2"/>
  <ellipse cx="32" cy="40" rx="12" ry="6" fill="none" stroke="#654321" stroke-width="2"/>
  <ellipse cx="32" cy="32" rx="12" ry="6" fill="none" stroke="#654321" stroke-width="2"/>
  <ellipse cx="32" cy="24" rx="12" ry="6" fill="none" stroke="#654321" stroke-width="2"/>
  <ellipse cx="32" cy="16" rx="12" ry="4" fill="none" stroke="#654321" stroke-width="2"/>
  
  <!-- Верх бочки -->
  <ellipse cx="32" cy="16" rx="12" ry="4" fill="#8B4513"/>
  
  <!-- Деревянные доски -->
  <line x1="20" y1="16" x2="20" y2="48" stroke="#8B4513" stroke-width="1"/>
  <line x1="24" y1="16" x2="24" y2="48" stroke="#8B4513" stroke-width="1"/>
  <line x1="28" y1="16" x2="28" y2="48" stroke="#8B4513" stroke-width="1"/>
  <line x1="32" y1="16" x2="32" y2="48" stroke="#8B4513" stroke-width="1"/>
  <line x1="36" y1="16" x2="36" y2="48" stroke="#8B4513" stroke-width="1"/>
  <line x1="40" y1="16" x2="40" y2="48" stroke="#8B4513" stroke-width="1"/>
  <line x1="44" y1="16" x2="44" y2="48" stroke="#8B4513" stroke-width="1"/>
</svg> 