<svg width="32" height="32" viewBox="0 0 32 32" xmlns="http://www.w3.org/2000/svg">
  <!-- Основной цвет травы -->
  <rect width="32" height="32" fill="#90EE90"/>
  
  <!-- Вариации цвета травы -->
  <rect x="0" y="0" width="8" height="8" fill="#98FB98"/>
  <rect x="8" y="8" width="8" height="8" fill="#7CFC00"/>
  <rect x="16" y="0" width="8" height="8" fill="#98FB98"/>
  <rect x="24" y="8" width="8" height="8" fill="#7CFC00"/>
  <rect x="0" y="16" width="8" height="8" fill="#7CFC00"/>
  <rect x="8" y="24" width="8" height="8" fill="#98FB98"/>
  <rect x="16" y="16" width="8" height="8" fill="#7CFC00"/>
  <rect x="24" y="24" width="8" height="8" fill="#98FB98"/>
  
  <!-- Травинки -->
  <line x1="4" y1="28" x2="4" y2="24" stroke="#228B22" stroke-width="1"/>
  <line x1="8" y1="28" x2="8" y2="22" stroke="#228B22" stroke-width="1"/>
  <line x1="12" y1="28" x2="12" y2="26" stroke="#228B22" stroke-width="1"/>
  <line x1="16" y1="28" x2="16" y2="24" stroke="#228B22" stroke-width="1"/>
  <line x1="20" y1="28" x2="20" y2="22" stroke="#228B22" stroke-width="1"/>
  <line x1="24" y1="28" x2="24" y2="26" stroke="#228B22" stroke-width="1"/>
  <line x1="28" y1="28" x2="28" y2="24" stroke="#228B22" stroke-width="1"/>
  
  <!-- Дополнительные травинки -->
  <line x1="6" y1="28" x2="6" y2="25" stroke="#32CD32" stroke-width="1"/>
  <line x1="10" y1="28" x2="10" y2="23" stroke="#32CD32" stroke-width="1"/>
  <line x1="14" y1="28" x2="14" y2="25" stroke="#32CD32" stroke-width="1"/>
  <line x1="18" y1="28" x2="18" y2="23" stroke="#32CD32" stroke-width="1"/>
  <line x1="22" y1="28" x2="22" y2="25" stroke="#32CD32" stroke-width="1"/>
  <line x1="26" y1="28" x2="26" y2="23" stroke="#32CD32" stroke-width="1"/>
</svg> 