<svg width="64" height="64" viewBox="0 0 64 64" xmlns="http://www.w3.org/2000/svg">
  <!-- Фон прозрачный -->
  
  <!-- Тень -->
  <ellipse cx="32" cy="60" rx="24" ry="4" fill="#000000" opacity="0.3"/>
  
  <!-- Основание дома -->
  <polygon points="6,40 20,32 44,32 58,40 58,50 6,50" fill="#8B4513"/>
  
  <!-- Стены -->
  <polygon points="10,36 18,32 46,32 54,36 54,46 10,46" fill="#DEB887"/>
  
  <!-- Крыша -->
  <polygon points="14,32 32,18 50,32 46,32 18,32" fill="#8B4513"/>
  
  <!-- Дымоход -->
  <rect x="20" y="20" width="6" height="12" fill="#696969"/>
  <rect x="21" y="18" width="4" height="2" fill="#A9A9A9"/>
  
  <!-- Дверь -->
  <rect x="26" y="42" width="10" height="8" fill="#654321"/>
  <rect x="30" y="44" width="2" height="2" fill="#FFD700"/>
  
  <!-- Окна -->
  <rect x="34" y="36" width="8" height="6" fill="#87CEEB"/>
  <rect x="36" y="38" width="4" height="2" fill="#FFFFFF"/>
  
  <rect x="14" y="36" width="8" height="6" fill="#87CEEB"/>
  <rect x="16" y="38" width="4" height="2" fill="#FFFFFF"/>
  
  <!-- Дым -->
  <ellipse cx="23" cy="16" rx="2" ry="1" fill="#C0C0C0" opacity="0.7"/>
  <ellipse cx="25" cy="14" rx="1.5" ry="1" fill="#C0C0C0" opacity="0.5"/>
</svg> 