<svg width="64" height="64" viewBox="0 0 64 64" xmlns="http://www.w3.org/2000/svg">
  <!-- Фон прозрачный -->
  
  <!-- Тень -->
  <ellipse cx="32" cy="60" rx="20" ry="4" fill="#000000" opacity="0.3"/>
  
  <!-- Основание дома -->
  <polygon points="8,40 24,32 40,32 56,40 56,48 8,48" fill="#8B4513"/>
  
  <!-- Стены -->
  <polygon points="12,36 20,32 44,32 52,36 52,44 12,44" fill="#DEB887"/>
  
  <!-- Крыша -->
  <polygon points="16,32 32,20 48,32 44,32 20,32" fill="#8B4513"/>
  
  <!-- Дверь -->
  <rect x="28" y="40" width="8" height="8" fill="#654321"/>
  
  <!-- Окно -->
  <rect x="36" y="36" width="6" height="4" fill="#87CEEB"/>
  <rect x="37" y="37" width="4" height="2" fill="#FFFFFF"/>
  
  <!-- Дымоход -->
  <rect x="22" y="24" width="4" height="8" fill="#696969"/>
  <rect x="23" y="22" width="2" height="2" fill="#A9A9A9"/>
</svg> 