<svg width="64" height="64" viewBox="0 0 64 64" xmlns="http://www.w3.org/2000/svg">
  <!-- Фон прозрачный -->
  
  <!-- Тень -->
  <ellipse cx="32" cy="60" rx="12" ry="3" fill="#000000" opacity="0.3"/>
  
  <!-- Основание колодца -->
  <polygon points="16,40 24,32 40,32 48,40 48,48 16,48" fill="#8B4513"/>
  
  <!-- Стены колодца -->
  <polygon points="20,36 28,32 36,32 44,36 44,44 20,44" fill="#DEB887"/>
  
  <!-- Крыша колодца -->
  <polygon points="24,32 32,24 40,32 36,32 28,32" fill="#8B4513"/>
  
  <!-- Крыша крыши -->
  <polygon points="26,24 32,20 38,24 36,24 28,24" fill="#654321"/>
  
  <!-- Ворот колодца -->
  <rect x="30" y="28" width="4" height="8" fill="#8B4513"/>
  <circle cx="32" cy="32" r="2" fill="#654321"/>
  
  <!-- Веревка -->
  <line x1="32" y1="28" x2="32" y2="36" stroke="#8B4513" stroke-width="1"/>
  
  <!-- Ведро -->
  <ellipse cx="32" cy="38" rx="3" ry="2" fill="#8B4513"/>
  <rect x="31" y="36" width="2" height="4" fill="#654321"/>
</svg> 